<svg width="21" height="20" viewBox="0 0 21 20" fill="none" xmlns="http://www.w3.org/2000/svg">
<g id="Location Icon">
<g id="Vector">
<path d="M17.0399 8.33335C17.0399 13.3334 10.3733 18.3334 10.3733 18.3334C10.3733 18.3334 3.7066 13.3334 3.7066 8.33335C3.7066 6.56524 4.40898 4.86955 5.65923 3.61931C6.90947 2.36907 8.60516 1.66669 10.3733 1.66669C12.1414 1.66669 13.8371 2.36907 15.0873 3.61931C16.3376 4.86955 17.0399 6.56524 17.0399 8.33335Z" stroke="#EF4444" stroke-width="1.5" stroke-linecap="round" stroke-linejoin="round"/>
<path d="M10.3733 10.8334C11.754 10.8334 12.8733 9.71407 12.8733 8.33335C12.8733 6.95264 11.754 5.83335 10.3733 5.83335C8.99256 5.83335 7.87327 6.95264 7.87327 8.33335C7.87327 9.71407 8.99256 10.8334 10.3733 10.8334Z" stroke="#EF4444" stroke-width="1.5" stroke-linecap="round" stroke-linejoin="round"/>
</g>
</g>
</svg>
